<?xml version="1.0" encoding="UTF-8"?>
<svg id="Layer_1" data-name="Layer 1" xmlns="http://www.w3.org/2000/svg" version="1.1" viewBox="0 0 41 41">
  <defs>
    <style>
      .cls-1 {
        fill: #121e48;
        stroke-width: 0px;
      }
    </style>
  </defs>
  <path class="cls-1" d="M4.2,34c-.7,0-1.2-.2-1.7-.7s-.6-1-.6-1.7.2-1.2.6-1.6,1-.6,1.7-.6h33.5c.7,0,1.2.2,1.6.6.4.4.7,1,.7,1.6s-.2,1.2-.7,1.7c-.4.4-1,.7-1.6.7H4.2ZM4.2,22.5c-.7,0-1.2-.2-1.7-.7s-.6-1-.6-1.6.2-1.2.6-1.6,1-.6,1.7-.6h33.5c.7,0,1.2.2,1.6.6.4.4.7,1,.7,1.6s-.2,1.2-.7,1.6c-.4.4-1,.7-1.6.7H4.2ZM4.2,11.1c-.7,0-1.2-.2-1.7-.6-.4-.4-.6-1-.6-1.7s.2-1.2.6-1.6,1-.7,1.7-.7h33.5c.7,0,1.2.2,1.6.7.4.4.7,1,.7,1.6s-.2,1.3-.7,1.7-1,.6-1.6.6H4.2Z"/>
</svg>