<?xml version="1.0" encoding="UTF-8"?>
<svg xmlns="http://www.w3.org/2000/svg" version="1.1" viewBox="0 0 24 24">
  <defs>
    <style>
      .cls-1 {
        fill: #272525;
      }

      .cls-1, .cls-2 {
        stroke-width: 0px;
      }

      .cls-3 {
        fill: none;
        stroke: #fff;
        stroke-linecap: round;
        stroke-linejoin: round;
        stroke-width: 1.5px;
      }

      .cls-3, .cls-4 {
        display: none;
      }

      .cls-2 {
        fill: #fff;
      }
    </style>
  </defs>
  <g id="Layer_2" data-name="Layer 2" class="cls-4">
    <rect class="cls-1" width="24" height="24"/>
  </g>
  <g id="Layer_1" data-name="Layer 1">
    <path class="cls-3" d="M12,12c2.8,0,5-2.2,5-5s-2.2-5-5-5-5,2.2-5,5,2.2,5,5,5Z"/>
    <path class="cls-3" d="M20.6,22c0-3.9-3.9-7-8.6-7s-8.6,3.1-8.6,7"/>
    <path class="cls-2" d="M21.8,15.3l-1.2-1.1c-.7-.6-1.6-1-2.5-1s-2.1.5-2.8,1.2l-.7.8c-.3.3-.5.6-.6,1-2.8-1.2-5-3.2-6.4-5.9.5-.2,1-.5,1.3-.9l.7-.8c.7-.7,1-1.7,1-2.7,0-1-.5-1.9-1.2-2.6l-1.2-1.1c-.7-.6-1.6-1-2.5-1s-2.1.5-2.8,1.2l-.7.8c0,.1-.2.2-.3.3-.8.7-1.4,2.2-1,4.1,1.6,8.1,8.4,14.3,16.6,15,.2,0,.4,0,.5,0,.9,0,1.8-.2,2.6-.7.3-.2.7-.4.9-.7l.7-.8c1.4-1.5,1.3-3.9-.3-5.3Z"/>
  </g>
</svg>