<?xml version="1.0" encoding="UTF-8"?>
<svg id="Layer_1" data-name="Layer 1" xmlns="http://www.w3.org/2000/svg" version="1.1" viewBox="0 0 24 24">
  <defs>
    <style>
      .cls-1 {
        fill: #272525;
      }

      .cls-1, .cls-2 {
        stroke-width: 0px;
      }

      .cls-3 {
        fill: none;
        stroke: #fff;
        stroke-linecap: round;
        stroke-linejoin: round;
        stroke-width: 1.5px;
      }

      .cls-3, .cls-4 {
        display: none;
      }

      .cls-2 {
        fill: #fff;
        fill-rule: evenodd;
      }
    </style>
  </defs>
  <g id="Layer_2" data-name="Layer 2" class="cls-4">
    <rect class="cls-1" width="24" height="24"/>
  </g>
  <g id="Layer_1-2" data-name="Layer 1">
    <path class="cls-3" d="M12,12c2.8,0,5-2.2,5-5s-2.2-5-5-5-5,2.2-5,5,2.2,5,5,5Z"/>
    <path class="cls-3" d="M20.6,22c0-3.9-3.9-7-8.6-7s-8.6,3.1-8.6,7"/>
  </g>
  <g>
    <path class="cls-2" d="M22.4,11.5c-.1-5.5-4.7-9.9-10.2-9.9S2.2,5.9,2,11.3c0,.1,0,.3,0,.4,0,1.9.5,3.7,1.5,5.3l-1.8,5.5,5.7-1.8c1.5.8,3.2,1.3,5,1.3,5.7,0,10.2-4.6,10.2-10.2s0-.2,0-.3ZM12.2,20.3c-1.8,0-3.4-.5-4.7-1.4l-3.3,1.1,1.1-3.2c-1-1.4-1.6-3.1-1.6-5s0-.6,0-.8c.4-4.3,4.1-7.7,8.6-7.7s8.2,3.5,8.6,7.9c0,.2,0,.4,0,.7,0,4.7-3.9,8.6-8.6,8.6Z"/>
    <path class="cls-2" d="M16.9,13.8c-.3-.1-1.5-.7-1.7-.8-.2,0-.4-.1-.6.1-.2.2-.7.8-.8,1-.1.2-.3.2-.5,0-.2-.1-1.1-.4-2-1.2-.7-.7-1.3-1.5-1.4-1.7-.1-.2,0-.4.1-.5.1-.1.2-.3.4-.4,0,0,0,0,0-.1,0,0,.1-.2.2-.3,0-.2,0-.3,0-.4,0-.1-.6-1.4-.8-1.9-.2-.5-.4-.4-.6-.4s-.3,0-.5,0-.4,0-.7.3c-.2.2-.9.9-.9,2.1s0,.6.1.8c.3.9.8,1.6.9,1.7.1.2,1.7,2.8,4.3,3.8,2.6,1,2.6.7,3,.6.5,0,1.5-.6,1.7-1.2.2-.6.2-1.1.1-1.2,0-.1-.2-.2-.5-.3Z"/>
  </g>
</svg>