<?xml version="1.0" encoding="utf-8"?>
<!-- Generator: Adobe Illustrator 24.0.2, SVG Export Plug-In . SVG Version: 6.00 Build 0)  -->
<svg version="1.1" id="Layer_1" xmlns="http://www.w3.org/2000/svg" xmlns:xlink="http://www.w3.org/1999/xlink" x="0px" y="0px"
	 viewBox="0 0 228.3 80" style="enable-background:new 0 0 228.3 80;" xml:space="preserve">
<style type="text/css">
	.st0{fill:#C7A543;}
	.st1{fill:#173F57;}
</style>
<g>
	<g>
		<g>
			<g>
				<path class="st0" d="M184.7,9.1c0.9-3.1,2.1-6.2,3.6-9.1c1.4,2.9,2.7,5.9,3.5,9c1.1,0.2,2.2,0.3,3.2,0.6
					c6.8,1.5,13.1,5.4,17.4,10.8c3.8,4.7,6.2,10.5,6.8,16.4c0.6,6.2-0.7,12.5-3.7,18c-2.6,4.7-6.4,8.8-11,11.6
					c-4.3,2.7-9.4,4.3-14.5,4.5c0,0.5-0.1,1-0.2,1.4c-1.1,0-2.2,0-3.3,0c-0.1-0.5-0.1-1-0.2-1.4c-6.1-0.3-12.1-2.6-17-6.3
					c-2.7-2-5-4.5-6.9-7.3c-2.2-3.3-3.9-7.1-4.7-11c-1.2-5.7-0.8-11.7,1.2-17.1c2.5-7,7.6-13,14.1-16.6
					C176.7,10.8,180.7,9.5,184.7,9.1z M187,6.3c-0.8,2.2-1.5,4.5-1.5,6.8c0,2.9,0,5.8,0,8.8c0,0.8,0,1.5,0,2.3
					c-0.5,0.3-0.9,0.6-1.4,0.9c0-0.4,0-0.8,0-1.2c0-2.3,0-4.7,0-7c0-0.5,0-1,0-1.5c0-1.6,0-3.2,0.2-4.8c-3.9,0.6-7.8,1.9-11.2,3.9
					c-7.1,4.2-12.3,11.4-13.9,19.5c-1.2,5.6-0.6,11.5,1.5,16.8c1.8,4.4,4.6,8.4,8.2,11.5c4.8,4.2,11,6.7,17.4,7.2
					c-0.3-2.8-0.6-5.5-0.9-8.3c-5.1-0.6-9.9-3.2-13.1-7.2c-0.1-0.2-0.3-0.4-0.3-0.6c0-0.5,0.6-0.8,0.9-0.5c0.5,0.3,0.9,0.8,1.3,1.1
					c2.9,2.2,6.4,3.5,10,4c4.3,0.7,8.8,0.3,12.9-1.3c2.1-0.8,4.2-1.9,5.9-3.4c0.2-0.2,0.4-0.4,0.7-0.5c0.2,0,0.4,0.1,0.7,0.1
					c0,0.3,0.2,0.7-0.1,0.9c-3.2,4.1-8.1,6.8-13.3,7.5c-0.3,2.8-0.6,5.5-0.9,8.3c6.5-0.4,12.8-3,17.6-7.4c4.3-3.8,7.5-8.8,9-14.4
					c1.7-6,1.4-12.6-0.9-18.4c-2.5-6.3-7.1-11.8-13-15.2c-3.3-1.9-6.9-3.1-10.7-3.6c0.3,1.6,0.2,3.2,0.2,4.8c0,0.5,0,1,0,1.5
					c0,1.1,0,2.1,0,3.2c-1.3,0.9-2.7,1.7-4.1,2.5c0-6.4,0-12.8,0-19.1C187.7,4.4,187.4,5.4,187,6.3z"/>
			</g>
			<path class="st0" d="M188.2,44.8c1.3-0.9,2.7-1.7,4.1-2.5c0,0.2,0,0.5,0,0.7c0,0.5,0,1,0,1.5c0,2.3,0,4.7,0,7c0,0.5,0,1,0,1.5
				c0,1.2,0,2.4,0,3.6c-1,0.1-2,0.2-3,0.2c-1.7,0.1-3.5-0.1-5.2-0.3c0-1.2,0-2.4,0-3.5c0-0.5,0-1,0-1.5c0-1.4,0-2.9,0-4.3
				c0.4-0.3,0.9-0.6,1.4-0.8c0,3,0,6,0,8.9c0.9,0.1,1.8,0.1,2.8,0.2C188.2,52,188.2,48.4,188.2,44.8z"/>
			<g>
				<path class="st0" d="M187.5,73.4c1.1-0.3,2.4-0.1,3.3,0.7c1.4,1.2,1.5,3.7,0.1,4.9c-1.2,1.2-3.3,1.3-4.7,0.2
					c-0.9-0.7-1.3-1.9-1.2-3C185.1,74.9,186.1,73.7,187.5,73.4z M187.6,74.8c-0.9,0.4-1.3,1.5-1.1,2.4c0.2,0.9,1,1.5,1.9,1.5
					c1.2,0.1,2.2-1.3,1.9-2.4C190.1,75,188.7,74.3,187.6,74.8z"/>
			</g>
		</g>
		<g>
			<path class="st1" d="M198.3,1.6c1.4-0.3,2.8,0.5,3.5,1.6c-0.4,0.3-0.7,0.6-1.1,0.8c-0.5-0.6-1.1-1.2-1.9-1.2
				c-0.4,0-0.7,0.6-0.3,0.9c0.6,0.6,1.5,0.9,2.1,1.6c0.8,1,0.1,2.7-1.2,2.9c-1.5,0.3-3-0.6-3.8-1.9c0.4-0.3,0.8-0.5,1.1-0.7
				c0.6,0.8,1.6,1.7,2.6,1.2c0-0.2,0.2-0.5,0-0.7c-0.7-0.8-1.8-1-2.3-1.9C196.6,3.2,197.3,1.8,198.3,1.6z"/>
			<g>
				<path class="st1" d="M175.6,2c0.4-0.1,0.9-0.3,1.3-0.4c1.5,1.8,3.1,3.6,4.6,5.4c-0.5,0.1-1,0.4-1.5,0.4c-0.4-0.4-0.6-0.8-1-1.1
					c-0.9,0.3-1.7,0.5-2.6,0.8c0,0.5-0.1,1-0.1,1.6c-0.5,0.1-0.9,0.3-1.4,0.4C175.1,6.8,175.4,4.4,175.6,2z M176.7,3.6
					c-0.1,0.7-0.1,1.4-0.2,2.1c0.5-0.2,1-0.3,1.6-0.5C177.7,4.7,177.2,4.1,176.7,3.6z"/>
			</g>
			<path class="st1" d="M201.2,9.1c1-2,2-3.9,2.9-5.8c1.5,0.7,2.9,1.5,4.4,2.2c-0.2,0.4-0.4,0.8-0.6,1.2c-1-0.5-2.1-1-3.1-1.5
				c-0.2,0.4-0.4,0.8-0.6,1.1c0.9,0.5,1.8,0.9,2.7,1.4c-0.2,0.4-0.4,0.8-0.6,1.2c-0.9-0.4-1.8-0.9-2.7-1.4c-0.2,0.4-0.4,0.8-0.6,1.2
				c1,0.5,2.1,1.1,3.1,1.6c-0.2,0.4-0.4,0.8-0.6,1.2C204.2,10.6,202.7,9.8,201.2,9.1z"/>
			<path class="st1" d="M167.6,7c0.3-2,2.6-3.2,4.5-2.7c-0.1,0.5-0.2,0.9-0.3,1.4c-0.8-0.1-1.6-0.1-2.2,0.5
				c-0.8,0.7-0.7,2.1,0.1,2.8c0.6,0.6,1.6,0.8,2.3,0.4c0.6-0.3,0.9-0.9,1.1-1.5c0.4,0.1,0.8,0.2,1.3,0.4c-0.3,1.8-2.3,3.1-4.1,2.7
				C168.4,10.6,167.2,8.7,167.6,7z"/>
			<path class="st1" d="M209.8,7.6c1.9-0.5,4.1,1,4.4,3c-0.5,0.1-0.9,0.2-1.4,0.3c-0.2-0.8-0.6-1.6-1.5-1.9c-1-0.3-2.2,0.4-2.5,1.4
				c-0.3,0.8,0,1.7,0.7,2.1c0.5,0.4,1.1,0.4,1.7,0.4c0.1,0.4,0.1,0.9,0.2,1.3c-0.9,0.1-1.8,0-2.5-0.5c-0.9-0.6-1.6-1.6-1.6-2.7
				C207.1,9.5,208.2,8,209.8,7.6z"/>
			<path class="st1" d="M163.7,8.5c0.4-0.3,0.8-0.6,1.2-0.9c1.3,1.7,2.6,3.5,3.9,5.2c-0.4,0.3-0.8,0.6-1.2,0.9
				C166.3,11.9,165,10.2,163.7,8.5z"/>
			<g>
				<path class="st1" d="M160.4,11.4c0.5-0.5,1.2-0.9,1.9-0.9c0.8,0,1.6,0.6,1.9,1.4c0.3,0.5,0.2,1.2,0,1.7c0.9,0.1,1.8,0.3,2.7,0.5
					c-0.4,0.4-0.8,0.9-1.3,1.2c-0.8-0.1-1.6-0.3-2.4-0.5c-0.2,0.3-0.6,0.5-0.7,0.8c0.4,0.5,0.9,0.9,1.4,1.4c-0.3,0.3-0.7,0.7-1,1
					c-1.5-1.5-3.1-3.1-4.6-4.7C159,12.7,159.7,12.1,160.4,11.4z M160.3,13.3c0.4,0.4,0.8,0.9,1.3,1.3c0.4-0.5,0.9-0.8,1.3-1.3
					c0.5-0.7-0.4-1.7-1.1-1.2C161.2,12.4,160.8,12.9,160.3,13.3z"/>
			</g>
			<path class="st1" d="M213.1,13.3c0.9-0.8,1.7-1.6,2.6-2.4c0.4,0.3,0.7,0.7,1,1.1c-0.9,0.8-1.7,1.6-2.6,2.4
				c-0.4,0.3-0.7,0.8-0.7,1.3c0.1,0.7,0.7,1.3,1.4,1.4c0.5,0,0.9-0.3,1.3-0.7c0.8-0.8,1.7-1.6,2.6-2.4c0.3,0.4,0.7,0.7,1,1.1
				c-0.9,0.8-1.8,1.7-2.7,2.5c-0.6,0.6-1.4,1-2.3,0.9c-0.9-0.1-1.6-0.7-2.2-1.4c-0.5-0.6-0.7-1.5-0.4-2.3
				C212.3,14.2,212.7,13.7,213.1,13.3z"/>
			<path class="st1" d="M154.3,18.9c1-1.4,1.9-2.7,2.9-4.1c0.4,0.3,0.7,0.5,1.1,0.8c-0.7,1-1.3,1.9-2,2.9c0.4,0.2,0.7,0.5,1.1,0.8
				c0.6-0.8,1.2-1.7,1.8-2.5c0.4,0.3,0.7,0.5,1.1,0.8c-0.6,0.9-1.2,1.7-1.8,2.5c0.7,0.5,1.4,1,2.1,1.4c-0.3,0.4-0.6,0.8-0.8,1.2
				C157.8,21.4,156,20.2,154.3,18.9z"/>
			<path class="st1" d="M175,15.4c3,0,6.1,0,9.1,0c0,0.5,0,1,0,1.5c-2.1,0-4.2,0-6.4,0c0.7,1.2,1.4,2.3,2.1,3.5
				c-0.7,1.2-1.4,2.3-2.1,3.5c2.1,0,4.2,0,6.4,0c0,0.4,0,0.8,0,1.2c0.5-0.3,0.9-0.6,1.4-0.9c0.9-0.6,1.8-1.1,2.7-1.6
				c1.4-0.8,2.8-1.6,4.1-2.5c1.7-1.1,3.5-2.1,5.2-3.2c-1.7,0-3.5,0-5.2,0c0-0.5,0-1,0-1.5c1.9,0,3.9,0,5.8,0c0.7,0,1.5,0.5,1.4,1.3
				c0,0.7-0.6,1.2-1.2,1.6c-7.8,4.7-15.5,9.3-23.3,14c0-0.6,0-1.2,0-1.8c2.8-1.7,5.6-3.3,8.4-5c-2.8,0-5.6,0-8.4,0c1-1.7,2-3.3,3-5
				C177.1,18.7,176,17.1,175,15.4z"/>
			<g>
				<path class="st1" d="M215.4,20.3c1.9-1.1,3.7-2.3,5.5-3.4c0.5,0.8,1,1.7,1.5,2.5c0.3,0.6,0.6,1.2,0.5,1.9
					c-0.2,1-1.2,1.8-2.2,1.8c-0.5,0-0.9-0.2-1.2-0.4c-0.4,0.8-0.8,1.7-1.2,2.5c-0.3-0.5-0.6-0.9-0.9-1.4c0.2-0.8,0.7-1.5,1-2.3
					c-0.2-0.3-0.4-0.6-0.6-0.9c-0.6,0.3-1.2,0.7-1.8,1.1C215.9,21.1,215.6,20.7,215.4,20.3z M219,19.8c0.4,0.5,0.6,1.2,1.1,1.6
					c0.6,0.5,1.6-0.2,1.4-0.9c-0.2-0.6-0.6-1.1-0.9-1.7C220,19.1,219.5,19.4,219,19.8z"/>
			</g>
			<g>
				<path class="st1" d="M194.8,22.1c1.4-0.8,2.7-1.6,4-2.4c0.1,0.1,0.3,0.1,0.4,0.2c0,5,0,10,0,15c-0.6,0.3-1.1,0.7-1.7,1
					c0-2.2,0-4.4,0-6.5c-0.5,0.3-1.1,0.7-1.7,1c0,2.2,0,4.4,0,6.5c-0.6,0.3-1.2,0.7-1.7,1c0-5,0-10,0-15
					C194.3,22.6,194.4,22.3,194.8,22.1z M195.8,23.3c0,1.8,0,3.6,0,5.3c0.6-0.3,1.1-0.7,1.7-1c0-1.8,0-3.6,0-5.4
					C196.9,22.6,196.4,22.9,195.8,23.3z"/>
			</g>
			<g>
				<path class="st1" d="M152.1,22.9c2.4,0.1,4.7,0.1,7.1,0.2c-0.2,0.5-0.4,0.9-0.6,1.4c-0.5,0-1.1,0-1.6,0
					c-0.4,0.8-0.7,1.6-1.1,2.5c0.4,0.4,0.7,0.8,1.1,1.2c-0.2,0.4-0.4,0.9-0.6,1.4c-1.6-1.7-3.2-3.5-4.8-5.2
					C151.7,23.7,151.9,23.3,152.1,22.9z M153.4,24.3c0.6,0.5,1,1,1.5,1.6c0.2-0.5,0.5-1,0.7-1.5C154.9,24.3,154.2,24.3,153.4,24.3z"
					/>
			</g>
			<path class="st1" d="M218.5,25.7c2-0.9,4-1.8,6-2.6c0.2,0.4,0.4,0.9,0.6,1.3c-2,0.9-4,1.8-6,2.6
				C218.9,26.6,218.7,26.2,218.5,25.7z"/>
			<path class="st1" d="M192.2,23.6c0.2-0.2,0.4,0,0.7,0c0,1.1,0,2.3,0,3.4c-0.6,0.3-1.2,0.7-1.8,1c0-0.7,0-1.3,0-2
				c-0.5,0.3-1.1,0.7-1.6,1c0,1.8,0,3.6,0,5.4c1-0.6,2-1.2,2.9-1.8c0.2,0.1,0.3,0.1,0.5,0.2c0,2.3,0,4.7,0,7c0.1,0.5-0.3,1-0.8,1.3
				c-1.3,0.8-2.6,1.6-3.9,2.4c-0.1-0.1-0.3-0.1-0.4-0.2c0-1,0-2,0-3c0.6-0.3,1.2-0.7,1.8-1c0,0.6,0,1.1,0,1.7c0.5-0.3,1.1-0.7,1.6-1
				c0-1.6,0-3.2,0-4.8c-1,0.6-2,1.2-2.9,1.8c-0.1-0.1-0.3-0.1-0.4-0.2c0-2.5,0-5.1,0-7.6c-0.1-0.6,0.3-1.1,0.8-1.4
				C189.8,25.1,191,24.4,192.2,23.6z"/>
			<path class="st1" d="M224.3,26c0.4-0.1,0.9-0.3,1.3-0.4c0.5,1.7,1.1,3.4,1.6,5.2c-0.4,0.1-0.9,0.3-1.3,0.4
				c-0.2-0.6-0.4-1.2-0.6-1.9c-1.7,0.5-3.3,1-4.9,1.5c-0.1-0.5-0.3-0.9-0.4-1.4c1.6-0.5,3.3-1,4.9-1.5
				C224.7,27.2,224.5,26.6,224.3,26z"/>
			<g>
				<path class="st1" d="M185.9,27.4c0.2-0.1,0.4,0,0.6,0c0,4.8,0,9.7,0,14.5c0,0.2,0.1,0.5-0.1,0.6c-0.5,0.3-1.1,0.6-1.6,1
					c0-2.2,0-4.4,0-6.5c-0.6,0.3-1.1,0.7-1.7,1c0,2.2,0,4.4,0,6.6c-0.6,0.3-1.1,0.7-1.7,1c0-5,0-10,0-15c0.2-0.3,0.3-0.6,0.7-0.8
					C183.3,29,184.6,28.2,185.9,27.4z M183.1,30.9c0,1.8,0,3.5,0,5.3c0.6-0.3,1.1-0.7,1.7-1c0-1.8,0-3.6,0-5.4
					C184.2,30.2,183.6,30.5,183.1,30.9z"/>
			</g>
			<path class="st1" d="M175.8,33.5c1.3-0.8,2.6-1.6,4-2.4c0.2,0.1,0.3,0.1,0.5,0.2c0,1.1,0,2.2,0,3.3c-0.6,0.3-1.2,0.7-1.8,1
				c0-0.7,0-1.3,0-2c-0.6,0.3-1.1,0.7-1.7,1c0,1.8,0,3.6,0,5.4c0.9-0.5,1.8-1.1,2.7-1.6c0.2-0.2,0.5-0.1,0.7,0c0,2.4,0,4.7,0,7.1
				c0,0.6-0.5,1.1-1,1.4c-1.3,0.7-2.5,1.5-3.7,2.2c-0.1-0.1-0.3-0.1-0.4-0.2c0-1,0-2,0-3.1c0.6-0.3,1.1-0.7,1.7-1c0,0.6,0,1.2,0,1.7
				c0.5-0.4,1.1-0.7,1.7-1c0-1.6,0-3.2,0-4.8c-1,0.6-2,1.2-3,1.8c-0.1-0.1-0.3-0.1-0.4-0.2c0-2.5,0-5,0-7.6
				C175,34.3,175.3,33.7,175.8,33.5z"/>
			<path class="st1" d="M149.1,31.7c2.1,0.3,4.3,0.6,6.4,0.9c-0.1,0.5-0.1,1-0.2,1.5c-0.9-0.1-1.7-0.2-2.6-0.4
				c-0.1,0.9-0.2,1.7-0.3,2.6c0.9,0.1,1.7,0.2,2.6,0.4c-0.1,0.5-0.1,1-0.2,1.4c-2.1-0.3-4.3-0.6-6.4-0.9c0.1-0.5,0.1-1,0.2-1.5
				c0.8,0.1,1.7,0.2,2.5,0.4c0.1-0.9,0.2-1.7,0.4-2.6c-0.8-0.1-1.7-0.2-2.5-0.3C149,32.6,149.1,32.2,149.1,31.7z"/>
			<path class="st1" d="M224.3,34.5c1.1-0.9,2.1-1.7,3.2-2.6c0.1,0.6,0.1,1.1,0.2,1.7c-0.8,0.6-1.6,1.2-2.4,1.8
				c0.9,0.4,1.8,0.8,2.7,1.2c0.1,0.6,0.1,1.1,0.2,1.7c-1.3-0.6-2.6-1.2-3.8-1.8c-0.2-0.1-0.4-0.2-0.6-0.1c-0.8,0.1-1.6,0.2-2.3,0.3
				c0-0.5-0.1-1-0.2-1.5c0.8-0.1,1.6-0.2,2.3-0.3C223.9,34.9,224.1,34.7,224.3,34.5z"/>
			<path class="st1" d="M176.3,50.2c7.8-4.6,15.5-9.3,23.3-14c0,0.6,0,1.2,0,1.8c-2.4,1.4-4.8,2.9-7.2,4.3c-1.4,0.8-2.8,1.6-4.1,2.5
				c-0.9,0.6-1.8,1.1-2.7,1.6c-0.5,0.2-0.9,0.5-1.4,0.8c-2.3,1.5-4.7,2.8-7.1,4.3c2.4,0,4.7,0,7.1,0c0,0.5,0,1,0,1.5
				c-2.6,0-5.1,0-7.7,0c-0.7,0-1.5-0.6-1.4-1.3C175,51,175.7,50.6,176.3,50.2z"/>
			<path class="st1" d="M148.3,38.9c0.5,0,0.9,0,1.4-0.1c0,0.7,0,1.3,0.1,2c1.7-0.1,3.4-0.1,5.1-0.2c0,0.5,0,1,0.1,1.5
				c-1.7,0.1-3.4,0.2-5.1,0.2c0,0.7,0,1.3,0,2c-0.5,0-0.9,0-1.4,0C148.4,42.5,148.3,40.7,148.3,38.9z"/>
			<g>
				<path class="st1" d="M221.6,42.9c0.1-0.5,0.1-1,0.2-1.5c2,1.2,4,2.5,6.1,3.7c-0.1,0.4-0.1,0.9-0.2,1.3c-2.3,0.6-4.6,1.2-6.9,1.8
					c0.1-0.5,0.1-1,0.3-1.5c0.5-0.2,1-0.2,1.5-0.4c0.1-0.9,0.3-1.8,0.4-2.7C222.5,43.4,222,43.1,221.6,42.9z M224.2,44.4
					c-0.1,0.5-0.2,1.1-0.2,1.6c0.7-0.2,1.4-0.3,2.1-0.5C225.4,45.1,224.8,44.7,224.2,44.4z"/>
			</g>
			<path class="st1" d="M192.3,43c3,0,6.1,0,9.1,0c-1,1.7-2.1,3.3-3.1,5c1,1.7,2,3.3,3,5c-3,0-6.1,0-9.1,0c0-0.5,0-1,0-1.5
				c2.1,0,4.3,0,6.4,0c-0.7-1.2-1.4-2.3-2.1-3.5c0.7-1.2,1.4-2.3,2.1-3.5c-2.1,0-4.3,0-6.4,0C192.3,44.1,192.4,43.6,192.3,43z"/>
			<path class="st1" d="M152.2,45.2c0.8-0.2,1.7-0.2,2.4,0.3c0.7,0.5,1,1.3,1.2,2.1c0.1,0.7,0,1.5-0.4,2.1c-0.5,0.6-1.2,0.9-1.9,1
				c-1.2,0.3-2.4,0.5-3.6,0.8c-0.1-0.5-0.2-1-0.3-1.4c1.1-0.2,2.2-0.5,3.3-0.7c0.4-0.1,0.9-0.2,1.3-0.6c0.5-0.5,0.3-1.4-0.1-1.9
				c-0.4-0.4-1-0.4-1.5-0.3c-1.2,0.3-2.4,0.5-3.6,0.8c-0.1-0.5-0.2-1-0.3-1.4C149.9,45.7,151.1,45.5,152.2,45.2z"/>
			<path class="st1" d="M219.6,52.2c-0.2-1.5,0.8-3,2-3.7c0.2,0.4,0.5,0.8,0.7,1.2c-0.7,0.5-1.4,1.1-1.5,2c-0.1,0.3,0.1,0.7,0.5,0.7
				c0.3,0,0.5-0.3,0.7-0.5c0.5-0.7,0.9-1.5,1.6-1.9c0.9-0.3,2,0.1,2.4,1c0.6,1.5-0.3,3-1.5,3.9c-0.3-0.4-0.6-0.7-0.8-1.1
				c0.6-0.5,1.3-1.1,1.2-2c0-0.4-0.6-0.6-0.9-0.3c-0.6,0.7-1,1.6-1.7,2.1C221.4,54.2,219.7,53.4,219.6,52.2z"/>
			<g>
				<path class="st1" d="M154,52c1.1-0.3,2.4,0,3.2,0.8c1.2,1.1,1.5,3.1,0.6,4.4c-0.8,1.3-2.6,1.9-4,1.3c-1.7-0.6-2.7-2.8-2.1-4.5
					C152.1,53.1,153,52.3,154,52z M154.6,53.4c-0.7,0.2-1.2,0.6-1.5,1.3c-0.4,0.9,0.1,2.1,1,2.4c1.3,0.6,3.1-0.6,2.8-2.1
					C156.9,54,155.7,53.1,154.6,53.4z"/>
			</g>
			<path class="st1" d="M217.3,57c0.1-1.5,1.2-2.8,2.6-3.3c0.2,0.4,0.4,0.8,0.5,1.3c-0.8,0.3-1.6,0.9-1.8,1.8
				c-0.2,0.4,0.3,0.9,0.7,0.6c0.8-0.5,1.2-1.4,2.1-1.8c1.1-0.5,2.6,0.5,2.5,1.8c0,1.4-1,2.5-2.2,3.1c-0.2-0.4-0.4-0.8-0.6-1.2
				c0.6-0.4,1.3-0.8,1.5-1.6c0.1-0.4-0.2-0.7-0.6-0.7c-0.9,0.5-1.3,1.5-2.2,1.9C218.6,59.4,217.2,58.3,217.3,57z"/>
			<path class="st1" d="M157.4,59.6c0.2-1.2,1.7-1.8,2.8-1.2c1.3,0.7,1.9,2.3,1.8,3.8c-0.5,0-0.9-0.1-1.3-0.1c0-0.9-0.2-1.9-0.9-2.4
				c-0.3-0.3-0.8,0-0.9,0.4c0.1,1,0.8,1.9,0.7,2.9c-0.2,1.2-1.6,1.9-2.7,1.3c-1.2-0.6-1.8-2-1.8-3.3c0.5,0,0.9,0,1.4-0.1
				c0,0.7,0.2,1.6,0.8,2.1c0.3,0.3,0.9,0,0.8-0.5C157.9,61.6,157.2,60.7,157.4,59.6z"/>
			<g>
				<path class="st1" d="M216.3,59.5c1.7-0.4,3.5,0.8,3.9,2.4c0.5,1.9-0.9,4.1-2.9,4.4c-1.7,0.3-3.5-1-3.8-2.7
					C213.2,61.8,214.5,59.8,216.3,59.5z M216.2,61c-0.7,0.2-1.3,1-1.3,1.7c0,1.3,1.4,2.4,2.6,2c1-0.3,1.7-1.5,1.3-2.4
					C218.5,61.3,217.3,60.6,216.2,61z"/>
			</g>
			<path class="st1" d="M208,68.4c0-1.8,1.6-3.4,3.4-3.4c1.8-0.1,3.4,1.5,3.4,3.3c0.1,2-1.9,3.8-3.9,3.6c0-0.5,0-0.9,0-1.4
				c0.9,0,1.8-0.3,2.2-1.1c0.6-1.2-0.3-2.6-1.5-2.9c-0.7-0.2-1.4,0.1-1.8,0.6c-0.4,0.4-0.5,0.9-0.6,1.4
				C208.9,68.5,208.4,68.4,208,68.4z"/>
			<path class="st1" d="M162.6,67.1c0.3-0.3,0.6-0.7,0.9-1c0.8,0.7,1.6,1.3,2.4,2c0.5-0.6,1.1-1.3,1.6-1.9c0.4,0.3,0.8,0.6,1.1,0.9
				c-1.4,1.7-2.8,3.3-4.2,5c-1.3-1.1-2.6-2.1-3.8-3.2c0.3-0.3,0.6-0.7,0.8-1c0.9,0.7,1.8,1.5,2.7,2.2c0.3-0.3,0.6-0.7,0.8-1
				C164.2,68.4,163.4,67.8,162.6,67.1z"/>
			<path class="st1" d="M205.6,68.6c0.4-0.3,0.8-0.5,1.2-0.8c1.2,1.8,2.3,3.7,3.5,5.5c-0.4,0.3-0.8,0.5-1.2,0.8
				C207.9,72.2,206.7,70.4,205.6,68.6z"/>
			<g>
				<path class="st1" d="M169.5,68.9c1.7-0.6,3.8,0.4,4.4,2c0.6,1.5-0.1,3.4-1.5,4.2c-1.7,1-4.2,0.1-4.9-1.7
					C166.7,71.7,167.7,69.5,169.5,68.9z M170.3,70.2c-1,0.2-1.7,1.3-1.6,2.3c0.1,1.1,1.3,1.9,2.3,1.6c1.1-0.2,1.8-1.5,1.5-2.6
					C172.3,70.6,171.3,70,170.3,70.2z"/>
			</g>
			<g>
				<path class="st1" d="M203.9,69.5c0.4-0.2,0.9-0.4,1.3-0.6c0.1,2.4,0.1,4.8,0.2,7.1c-0.4,0.2-0.8,0.4-1.2,0.5
					c-1.7-1.6-3.5-3.2-5.2-4.8c0.5-0.2,0.9-0.4,1.4-0.6c0.4,0.4,0.7,0.7,1.1,1.1c0.8-0.4,1.6-0.8,2.5-1.1
					C204,70.6,203.9,70.1,203.9,69.5z M202.5,73.2c0.5,0.5,1.1,1,1.6,1.5c0-0.7,0-1.4-0.1-2.2C203.5,72.8,203,73,202.5,73.2z"/>
			</g>
			<path class="st1" d="M178.7,72.1c0.4,0.1,0.8,0.2,1.2,0.3c0.7,1.5,1.5,3,2.2,4.6c0.3-1.3,0.6-2.6,0.8-4c0.5,0.1,0.9,0.2,1.4,0.3
				c-0.4,2.1-0.9,4.3-1.3,6.4c-0.4-0.1-0.9-0.2-1.3-0.3c-0.7-1.5-1.5-3-2.1-4.5c-0.3,1.3-0.5,2.6-0.8,3.9c-0.5-0.1-0.9-0.2-1.4-0.3
				C177.8,76.4,178.2,74.2,178.7,72.1z"/>
			<path class="st1" d="M196.5,72.4c0.5-0.1,0.9-0.3,1.4-0.4c0.5,1.7,0.9,3.3,1.4,5c0.6-0.2,1.3-0.3,1.9-0.5
				c0.1,0.4,0.2,0.9,0.4,1.3c-1.7,0.5-3.5,1-5.2,1.4c-0.1-0.4-0.2-0.9-0.3-1.3c0.6-0.2,1.3-0.3,1.9-0.5
				C197.4,75.7,196.9,74,196.5,72.4z"/>
			<path class="st1" d="M192.6,73.1c0.5-0.1,1-0.1,1.4-0.2c0.3,2.1,0.7,4.3,1,6.4c-0.5,0.1-1,0.1-1.4,0.2
				C193.3,77.4,192.9,75.2,192.6,73.1z"/>
		</g>
	</g>
	<g>
		<g>
			<path class="st1" d="M5,54.2c0.5,0.2,0.9,0.4,1.3,0.6L5.8,56c-0.4-0.3-0.8-0.5-1.3-0.6c-0.4-0.1-0.8-0.2-1.1-0.2
				c-0.4,0-0.7,0.1-1,0.2C2.1,55.6,2,55.8,2,56.1c0,0.2,0.1,0.4,0.2,0.6c0.2,0.2,0.3,0.3,0.6,0.4c0.2,0.1,0.6,0.2,1,0.3
				c0.6,0.2,1,0.3,1.4,0.5c0.3,0.2,0.6,0.4,0.9,0.7c0.2,0.3,0.4,0.7,0.4,1.2c0,0.5-0.1,0.9-0.4,1.3C5.8,61.5,5.4,61.8,5,62
				c-0.5,0.2-1,0.3-1.6,0.3c-0.6,0-1.2-0.1-1.8-0.4C1,61.7,0.4,61.4,0,61l0.6-1.2C1,60.2,1.5,60.4,2,60.7c0.5,0.2,1,0.3,1.4,0.3
				c0.5,0,0.9-0.1,1.1-0.3c0.3-0.2,0.4-0.4,0.4-0.7c0-0.3-0.1-0.5-0.2-0.6c-0.2-0.2-0.4-0.3-0.6-0.4c-0.2-0.1-0.6-0.2-1-0.3
				c-0.6-0.2-1-0.3-1.4-0.5c-0.3-0.2-0.6-0.4-0.9-0.7c-0.2-0.3-0.4-0.7-0.4-1.2c0-0.5,0.1-0.9,0.4-1.2c0.2-0.3,0.6-0.6,1-0.8
				c0.4-0.2,1-0.3,1.6-0.3C4,54,4.5,54,5,54.2z"/>
			<path class="st1" d="M9.4,55.3v2.2h4v1.2h-4V61H14v1.2H8V54h5.9v1.2H9.4z"/>
			<path class="st1" d="M21.1,54.3c0.6,0.2,1,0.5,1.4,0.9l-0.8,1c-0.3-0.3-0.6-0.6-1.1-0.8s-0.8-0.3-1.2-0.3c-0.5,0-1,0.1-1.5,0.4
				c-0.4,0.3-0.8,0.6-1.1,1c-0.3,0.4-0.4,0.9-0.4,1.5c0,0.5,0.1,1,0.4,1.5c0.3,0.4,0.6,0.8,1.1,1c0.4,0.3,0.9,0.4,1.5,0.4
				c0.4,0,0.8-0.1,1.2-0.3c0.4-0.2,0.8-0.4,1.1-0.7l0.8,0.9c-0.4,0.4-0.9,0.7-1.5,1c-0.6,0.2-1.1,0.4-1.7,0.4
				c-0.8,0-1.5-0.2-2.2-0.5c-0.7-0.4-1.2-0.9-1.5-1.5c-0.4-0.6-0.6-1.3-0.6-2.1c0-0.8,0.2-1.5,0.6-2.1c0.4-0.6,0.9-1.1,1.6-1.5
				c0.7-0.4,1.4-0.5,2.2-0.5C19.9,54,20.5,54.1,21.1,54.3z"/>
			<path class="st1" d="M30.4,60.7c-0.3,0.5-0.7,0.9-1.2,1.2c-0.5,0.3-1.2,0.4-1.9,0.4c-0.7,0-1.4-0.1-1.9-0.4
				c-0.5-0.3-0.9-0.7-1.2-1.2c-0.3-0.5-0.4-1.1-0.4-1.8V54h1.4v4.8c0,0.7,0.2,1.2,0.6,1.6c0.4,0.4,0.9,0.6,1.6,0.6
				c0.7,0,1.2-0.2,1.6-0.6c0.4-0.4,0.6-0.9,0.6-1.6V54h1.4v4.8C30.9,59.5,30.7,60.1,30.4,60.7z"/>
			<path class="st1" d="M36.5,59.7c-0.1,0-0.2,0-0.4,0h-1.9v2.5h-1.4V54h3.3c1,0,1.9,0.2,2.4,0.7c0.6,0.5,0.9,1.2,0.9,2.1
				c0,0.7-0.1,1.2-0.4,1.7c-0.3,0.5-0.7,0.8-1.3,1l1.8,2.7H38L36.5,59.7z M37.6,58.1c0.3-0.3,0.5-0.7,0.5-1.2c0-0.5-0.2-0.9-0.5-1.2
				c-0.3-0.3-0.8-0.4-1.5-0.4h-1.9v3.2h1.9C36.8,58.5,37.3,58.4,37.6,58.1z"/>
			<path class="st1" d="M41.3,62.2V54h1.4v8.2H41.3z"/>
			<path class="st1" d="M47.8,55.3v7h-1.4v-7h-2.6V54h6.6v1.2H47.8z"/>
			<path class="st1" d="M54.9,62.2h-1.4v-2.7L50.5,54h1.4l2.3,4l2.3-4H58l-3,5.5V62.2z"/>
			<path class="st1" d="M63.2,60.4l-0.8,1.9H61l3.6-8.2H66l3.6,8.2h-1.5l-0.8-1.9H63.2z M65.3,55.5l-1.5,3.6h3.1L65.3,55.5z"/>
			<path class="st1" d="M74.9,54.2c0.5,0.2,0.9,0.4,1.3,0.6L75.6,56c-0.4-0.3-0.8-0.5-1.3-0.6c-0.4-0.1-0.8-0.2-1.1-0.2
				c-0.4,0-0.7,0.1-1,0.2c-0.2,0.1-0.4,0.4-0.4,0.6c0,0.2,0.1,0.4,0.2,0.6c0.2,0.2,0.3,0.3,0.6,0.4c0.2,0.1,0.6,0.2,1,0.3
				c0.6,0.2,1,0.3,1.4,0.5c0.3,0.2,0.6,0.4,0.9,0.7c0.2,0.3,0.4,0.7,0.4,1.2c0,0.5-0.1,0.9-0.4,1.3c-0.3,0.4-0.6,0.6-1.1,0.8
				c-0.5,0.2-1,0.3-1.6,0.3c-0.6,0-1.2-0.1-1.8-0.4c-0.6-0.2-1.1-0.5-1.5-0.9l0.6-1.2c0.4,0.4,0.9,0.7,1.4,0.9
				c0.5,0.2,1,0.3,1.4,0.3c0.5,0,0.9-0.1,1.1-0.3c0.3-0.2,0.4-0.4,0.4-0.7c0-0.3-0.1-0.5-0.2-0.6c-0.2-0.2-0.4-0.3-0.6-0.4
				c-0.2-0.1-0.6-0.2-1-0.3c-0.6-0.2-1-0.3-1.4-0.5c-0.3-0.2-0.6-0.4-0.9-0.7c-0.2-0.3-0.4-0.7-0.4-1.2c0-0.5,0.1-0.9,0.4-1.2
				c0.2-0.3,0.6-0.6,1-0.8c0.4-0.2,1-0.3,1.6-0.3C73.8,54,74.4,54,74.9,54.2z"/>
			<path class="st1" d="M82.1,54.2c0.5,0.2,0.9,0.4,1.3,0.6L82.9,56c-0.4-0.3-0.8-0.5-1.3-0.6c-0.4-0.1-0.8-0.2-1.1-0.2
				c-0.4,0-0.7,0.1-1,0.2c-0.2,0.1-0.4,0.4-0.4,0.6c0,0.2,0.1,0.4,0.2,0.6c0.2,0.2,0.3,0.3,0.6,0.4c0.2,0.1,0.6,0.2,1,0.3
				c0.6,0.2,1,0.3,1.4,0.5c0.3,0.2,0.6,0.4,0.9,0.7c0.2,0.3,0.4,0.7,0.4,1.2c0,0.5-0.1,0.9-0.4,1.3c-0.3,0.4-0.6,0.6-1.1,0.8
				c-0.5,0.2-1,0.3-1.6,0.3c-0.6,0-1.2-0.1-1.8-0.4c-0.6-0.2-1.1-0.5-1.5-0.9l0.6-1.2c0.4,0.4,0.9,0.7,1.4,0.9
				c0.5,0.2,1,0.3,1.4,0.3c0.5,0,0.9-0.1,1.1-0.3c0.3-0.2,0.4-0.4,0.4-0.7c0-0.3-0.1-0.5-0.2-0.6c-0.2-0.2-0.4-0.3-0.6-0.4
				c-0.2-0.1-0.6-0.2-1-0.3c-0.6-0.2-1-0.3-1.4-0.5c-0.3-0.2-0.6-0.4-0.9-0.7c-0.2-0.3-0.4-0.7-0.4-1.2c0-0.5,0.1-0.9,0.4-1.2
				c0.2-0.3,0.6-0.6,1-0.8c0.4-0.2,1-0.3,1.6-0.3C81.1,54,81.6,54,82.1,54.2z"/>
			<path class="st1" d="M91.1,54.5c0.7,0.4,1.2,0.9,1.6,1.5c0.4,0.6,0.6,1.3,0.6,2.1c0,0.8-0.2,1.5-0.6,2.1
				c-0.4,0.6-0.9,1.1-1.6,1.5c-0.7,0.4-1.4,0.5-2.2,0.5c-0.8,0-1.5-0.2-2.2-0.5c-0.7-0.4-1.2-0.9-1.6-1.5c-0.4-0.6-0.6-1.3-0.6-2.1
				c0-0.8,0.2-1.5,0.6-2.1c0.4-0.6,0.9-1.1,1.6-1.5c0.7-0.4,1.4-0.5,2.2-0.5C89.7,54,90.4,54.2,91.1,54.5z M87.4,55.6
				c-0.5,0.3-0.8,0.6-1.1,1c-0.3,0.4-0.4,0.9-0.4,1.5c0,0.5,0.1,1,0.4,1.5c0.3,0.4,0.6,0.8,1.1,1.1c0.4,0.3,0.9,0.4,1.5,0.4
				c0.5,0,1-0.1,1.5-0.4s0.8-0.6,1.1-1.1c0.3-0.4,0.4-0.9,0.4-1.5c0-0.5-0.1-1-0.4-1.5c-0.3-0.4-0.6-0.8-1.1-1
				c-0.4-0.3-0.9-0.4-1.5-0.4C88.3,55.2,87.8,55.4,87.4,55.6z"/>
			<path class="st1" d="M99.7,54.3c0.6,0.2,1,0.5,1.4,0.9l-0.8,1c-0.3-0.3-0.6-0.6-1.1-0.8s-0.8-0.3-1.2-0.3c-0.5,0-1,0.1-1.5,0.4
				c-0.4,0.3-0.8,0.6-1.1,1c-0.3,0.4-0.4,0.9-0.4,1.5c0,0.5,0.1,1,0.4,1.5c0.3,0.4,0.6,0.8,1.1,1C97,60.9,97.4,61,98,61
				c0.4,0,0.8-0.1,1.2-0.3c0.4-0.2,0.8-0.4,1.1-0.7l0.8,0.9c-0.4,0.4-0.9,0.7-1.5,1c-0.6,0.2-1.1,0.4-1.7,0.4
				c-0.8,0-1.5-0.2-2.2-0.5c-0.7-0.4-1.2-0.9-1.5-1.5c-0.4-0.6-0.6-1.3-0.6-2.1c0-0.8,0.2-1.5,0.6-2.1c0.4-0.6,0.9-1.1,1.6-1.5
				c0.7-0.4,1.4-0.5,2.2-0.5C98.5,54,99.1,54.1,99.7,54.3z"/>
			<path class="st1" d="M102.5,62.2V54h1.4v8.2H102.5z"/>
			<path class="st1" d="M107.2,60.4l-0.8,1.9H105l3.6-8.2h1.4l3.6,8.2h-1.5l-0.8-1.9H107.2z M109.2,55.5l-1.5,3.6h3.1L109.2,55.5z"
				/>
			<path class="st1" d="M116.9,55.3v7h-1.4v-7h-2.6V54h6.6v1.2H116.9z"/>
			<path class="st1" d="M120.6,62.2V54h1.4v8.2H120.6z"/>
			<path class="st1" d="M130,54.5c0.7,0.4,1.2,0.9,1.6,1.5c0.4,0.6,0.6,1.3,0.6,2.1c0,0.8-0.2,1.5-0.6,2.1c-0.4,0.6-0.9,1.1-1.6,1.5
				c-0.7,0.4-1.4,0.5-2.2,0.5c-0.8,0-1.5-0.2-2.2-0.5c-0.7-0.4-1.2-0.9-1.6-1.5c-0.4-0.6-0.6-1.3-0.6-2.1c0-0.8,0.2-1.5,0.6-2.1
				c0.4-0.6,0.9-1.1,1.6-1.5c0.7-0.4,1.4-0.5,2.2-0.5C128.6,54,129.4,54.2,130,54.5z M126.4,55.6c-0.5,0.3-0.8,0.6-1.1,1
				c-0.3,0.4-0.4,0.9-0.4,1.5c0,0.5,0.1,1,0.4,1.5c0.3,0.4,0.6,0.8,1.1,1.1c0.4,0.3,0.9,0.4,1.5,0.4c0.5,0,1-0.1,1.5-0.4
				c0.4-0.3,0.8-0.6,1.1-1.1c0.3-0.4,0.4-0.9,0.4-1.5c0-0.5-0.1-1-0.4-1.5c-0.3-0.4-0.6-0.8-1.1-1c-0.4-0.3-0.9-0.4-1.5-0.4
				C127.3,55.2,126.8,55.4,126.4,55.6z"/>
			<path class="st1" d="M139.4,62.2l-4.4-5.9v5.9h-1.4V54h1.4l4.4,5.9V54h1.4v8.2H139.4z"/>
			<path class="st1" d="M23.7,67.4c0.7,0.4,1.2,0.9,1.6,1.5c0.4,0.6,0.6,1.3,0.6,2.1c0,0.8-0.2,1.5-0.6,2.1
				c-0.4,0.6-0.9,1.1-1.6,1.5c-0.7,0.4-1.4,0.5-2.2,0.5c-0.8,0-1.5-0.2-2.2-0.5c-0.7-0.4-1.2-0.9-1.6-1.5c-0.4-0.6-0.6-1.3-0.6-2.1
				c0-0.8,0.2-1.5,0.6-2.1c0.4-0.6,0.9-1.1,1.6-1.5c0.7-0.4,1.4-0.5,2.2-0.5C22.3,66.9,23,67.1,23.7,67.4z M20,68.5
				c-0.5,0.3-0.8,0.6-1.1,1c-0.3,0.4-0.4,0.9-0.4,1.5c0,0.5,0.1,1,0.4,1.5c0.3,0.4,0.6,0.8,1.1,1.1c0.4,0.3,0.9,0.4,1.5,0.4
				c0.5,0,1-0.1,1.5-0.4c0.4-0.3,0.8-0.6,1.1-1.1c0.3-0.4,0.4-0.9,0.4-1.5c0-0.5-0.1-1-0.4-1.5c-0.3-0.4-0.6-0.8-1.1-1
				c-0.4-0.3-0.9-0.4-1.5-0.4C21,68.1,20.5,68.2,20,68.5z"/>
			<path class="st1" d="M28.7,68.1v2.4h3.7v1.2h-3.7v3.4h-1.4v-8.2h5.5l0,1.2H28.7z"/>
			<path class="st1" d="M41.3,67.1c0.5,0.2,0.9,0.4,1.3,0.6L42,68.9c-0.4-0.3-0.8-0.5-1.3-0.6c-0.4-0.1-0.8-0.2-1.1-0.2
				c-0.4,0-0.7,0.1-1,0.2c-0.2,0.1-0.4,0.4-0.4,0.6c0,0.2,0.1,0.4,0.2,0.6c0.2,0.2,0.3,0.3,0.6,0.4c0.2,0.1,0.6,0.2,1,0.3
				c0.6,0.2,1,0.3,1.4,0.5c0.3,0.2,0.6,0.4,0.9,0.7c0.2,0.3,0.4,0.7,0.4,1.2c0,0.5-0.1,0.9-0.4,1.3c-0.3,0.4-0.6,0.6-1.1,0.8
				c-0.5,0.2-1,0.3-1.6,0.3c-0.6,0-1.2-0.1-1.8-0.4c-0.6-0.2-1.1-0.5-1.5-0.9l0.6-1.2c0.4,0.4,0.9,0.7,1.4,0.9
				c0.5,0.2,1,0.3,1.4,0.3c0.5,0,0.9-0.1,1.1-0.3c0.3-0.2,0.4-0.4,0.4-0.7c0-0.3-0.1-0.5-0.2-0.6c-0.2-0.2-0.4-0.3-0.6-0.4
				c-0.2-0.1-0.6-0.2-1-0.3c-0.6-0.2-1-0.3-1.4-0.5c-0.3-0.2-0.6-0.4-0.9-0.7c-0.2-0.3-0.4-0.7-0.4-1.2c0-0.5,0.1-0.9,0.4-1.2
				c0.2-0.3,0.6-0.6,1-0.8c0.4-0.2,1-0.3,1.6-0.3C40.3,66.9,40.8,66.9,41.3,67.1z"/>
			<path class="st1" d="M50.2,67.4c0.7,0.4,1.2,0.9,1.6,1.5c0.4,0.6,0.6,1.3,0.6,2.1c0,0.8-0.2,1.5-0.6,2.1
				c-0.4,0.6-0.9,1.1-1.6,1.5c-0.7,0.4-1.4,0.5-2.2,0.5c-0.8,0-1.5-0.2-2.2-0.5c-0.7-0.4-1.2-0.9-1.6-1.5c-0.4-0.6-0.6-1.3-0.6-2.1
				c0-0.8,0.2-1.5,0.6-2.1c0.4-0.6,0.9-1.1,1.6-1.5c0.7-0.4,1.4-0.5,2.2-0.5C48.8,66.9,49.5,67.1,50.2,67.4z M46.5,68.5
				c-0.5,0.3-0.8,0.6-1.1,1C45.2,70,45,70.5,45,71c0,0.5,0.1,1,0.4,1.5c0.3,0.4,0.6,0.8,1.1,1.1c0.4,0.3,0.9,0.4,1.5,0.4
				c0.5,0,1-0.1,1.5-0.4c0.4-0.3,0.8-0.6,1.1-1.1c0.3-0.4,0.4-0.9,0.4-1.5c0-0.5-0.1-1-0.4-1.5c-0.3-0.4-0.6-0.8-1.1-1
				c-0.4-0.3-0.9-0.4-1.5-0.4C47.5,68.1,47,68.2,46.5,68.5z"/>
			<path class="st1" d="M60.3,73.6c-0.3,0.5-0.7,0.9-1.2,1.2c-0.5,0.3-1.2,0.4-1.9,0.4c-0.7,0-1.4-0.1-1.9-0.4
				c-0.5-0.3-0.9-0.7-1.2-1.2c-0.3-0.5-0.4-1.1-0.4-1.8v-4.8H55v4.8c0,0.7,0.2,1.2,0.6,1.6c0.4,0.4,0.9,0.6,1.6,0.6
				c0.7,0,1.2-0.2,1.6-0.6c0.4-0.4,0.6-0.9,0.6-1.6v-4.8h1.4v4.8C60.8,72.4,60.6,73,60.3,73.6z"/>
			<path class="st1" d="M65.7,68.1v7h-1.4v-7h-2.6v-1.2h6.6v1.2H65.7z"/>
			<path class="st1" d="M75.2,75.1v-3.4h-4.3v3.4h-1.4v-8.2h1.4v3.6h4.3v-3.6h1.4v8.2H75.2z"/>
			<path class="st1" d="M82.9,73.3l-0.8,1.9h-1.4l3.6-8.2h1.4l3.6,8.2h-1.5l-0.8-1.9H82.9z M85,68.4L83.5,72h3.1L85,68.4z"/>
			<path class="st1" d="M91.8,68.1v2.4h3.7v1.2h-3.7v3.4h-1.4v-8.2h5.5l0,1.2H91.8z"/>
			<path class="st1" d="M100.8,72.6c-0.1,0-0.2,0-0.4,0h-1.9v2.5h-1.4v-8.2h3.3c1,0,1.9,0.2,2.4,0.7c0.6,0.5,0.9,1.2,0.9,2.1
				c0,0.7-0.1,1.2-0.4,1.7c-0.3,0.5-0.7,0.8-1.3,1l1.8,2.7h-1.6L100.8,72.6z M101.9,71c0.3-0.3,0.5-0.7,0.5-1.2
				c0-0.5-0.2-0.9-0.5-1.2c-0.3-0.3-0.8-0.4-1.5-0.4h-1.9v3.2h1.9C101.1,71.4,101.6,71.3,101.9,71z"/>
			<path class="st1" d="M105.6,75.1v-8.2h1.4v8.2H105.6z"/>
			<path class="st1" d="M114.5,67.2c0.6,0.2,1,0.5,1.4,0.9l-0.8,1c-0.3-0.3-0.6-0.6-1.1-0.8s-0.8-0.3-1.2-0.3c-0.5,0-1,0.1-1.5,0.4
				c-0.4,0.3-0.8,0.6-1.1,1c-0.3,0.4-0.4,0.9-0.4,1.5c0,0.5,0.1,1,0.4,1.5c0.3,0.4,0.6,0.8,1.1,1c0.4,0.3,0.9,0.4,1.5,0.4
				c0.4,0,0.8-0.1,1.2-0.3c0.4-0.2,0.8-0.4,1.1-0.7l0.8,0.9c-0.4,0.4-0.9,0.7-1.5,1s-1.1,0.4-1.7,0.4c-0.8,0-1.5-0.2-2.2-0.5
				c-0.7-0.4-1.2-0.9-1.5-1.5c-0.4-0.6-0.6-1.3-0.6-2.1c0-0.8,0.2-1.5,0.6-2.1c0.4-0.6,0.9-1.1,1.6-1.5c0.7-0.4,1.4-0.5,2.2-0.5
				C113.3,66.9,113.9,67,114.5,67.2z"/>
			<path class="st1" d="M118.4,73.3l-0.8,1.9h-1.4l3.6-8.2h1.4l3.6,8.2h-1.5l-0.8-1.9H118.4z M120.5,68.4l-1.5,3.6h3.1L120.5,68.4z"
				/>
		</g>
		<g>
			<path class="st1" d="M59.6,42.6c0.5,0.2,0.8,0.6,1.1,1c0.3,0.4,0.4,1,0.4,1.5c0,0.6-0.1,1.1-0.4,1.5c-0.3,0.4-0.6,0.8-1.1,1
				c-0.5,0.2-1,0.4-1.6,0.4c-0.6,0-1.1-0.1-1.6-0.4c-0.5-0.2-0.8-0.6-1.1-1c-0.3-0.4-0.4-1-0.4-1.5c0-0.6,0.1-1.1,0.4-1.5
				c0.3-0.4,0.6-0.8,1.1-1c0.5-0.2,1-0.4,1.6-0.4C58.6,42.2,59.2,42.3,59.6,42.6z M56.8,43.8c-0.3,0.3-0.5,0.8-0.5,1.3
				c0,0.6,0.2,1,0.5,1.4c0.3,0.3,0.8,0.5,1.3,0.5c0.5,0,0.9-0.2,1.3-0.5c0.3-0.3,0.5-0.8,0.5-1.4c0-0.6-0.2-1-0.5-1.4
				c-0.3-0.3-0.8-0.5-1.3-0.5C57.5,43.3,57.1,43.5,56.8,43.8z"/>
			<path class="st1" d="M64,41.2c-0.1,0.1-0.2,0.3-0.2,0.6v0.7h1.5v0.9h-1.5v4.6h-1.2v-4.6h-0.8v-0.9h0.8v-0.6
				c0-0.4,0.1-0.8,0.3-1.1c0.2-0.3,0.4-0.5,0.7-0.7c0.3-0.1,0.6-0.2,1-0.2c0.5,0,0.9,0.1,1.3,0.4l-0.5,1c-0.2-0.2-0.5-0.3-0.8-0.3
				C64.4,41,64.2,41.1,64,41.2z"/>
			<path class="st1" d="M70.7,48.1c-0.5,0-0.9-0.1-1.2-0.4c-0.3-0.3-0.5-0.7-0.5-1.3v-3h-0.8v-0.9h0.8v-1.6h1.2v1.6h1.7v0.9h-1.7
				v2.8c0,0.3,0.1,0.5,0.2,0.6c0.1,0.1,0.3,0.2,0.5,0.2c0.2,0,0.5-0.1,0.9-0.2l0.3,1C71.7,48,71.2,48.1,70.7,48.1z"/>
			<path class="st1" d="M78.3,42.8c0.4,0.4,0.6,0.9,0.6,1.6v3.6h-1.3v-3.3c0-0.4-0.1-0.8-0.4-1c-0.2-0.3-0.6-0.4-1-0.4
				c-0.5,0-0.9,0.2-1.2,0.5c-0.3,0.3-0.4,0.8-0.4,1.3v2.9h-1.3V40h1.3v3.4c0.4-0.8,1.1-1.2,2.1-1.2C77.4,42.2,78,42.4,78.3,42.8z"/>
			<path class="st1" d="M85,43c0.5,0.5,0.7,1.2,0.7,2.2c0,0.1,0,0.3,0,0.5h-4.4c0.1,0.5,0.3,0.8,0.6,1.1c0.3,0.3,0.7,0.4,1.2,0.4
				c0.3,0,0.6-0.1,0.9-0.2c0.3-0.1,0.5-0.3,0.7-0.5l0.7,0.7c-0.3,0.3-0.6,0.6-1,0.7C84,48,83.5,48.1,83,48.1c-0.6,0-1.1-0.1-1.6-0.4
				c-0.4-0.2-0.8-0.6-1-1c-0.2-0.4-0.4-1-0.4-1.5s0.1-1.1,0.4-1.5c0.2-0.4,0.6-0.8,1-1c0.4-0.3,1-0.4,1.5-0.4
				C83.9,42.2,84.6,42.5,85,43z M84.1,43.6c-0.3-0.3-0.7-0.4-1.1-0.4c-0.5,0-0.8,0.1-1.1,0.4c-0.3,0.3-0.5,0.6-0.6,1.1h3.3
				C84.6,44.3,84.4,43.9,84.1,43.6z"/>
		</g>
		<g>
			<path class="st0" d="M4.9,7.9c0.5-0.3,1.1-0.5,1.8-0.5c0.6,0,1.1,0.1,1.7,0.4C9,8,9.6,8.4,10,8.8l1.7-2.1c-0.6-0.6-1.4-1-2.3-1.3
				C8.6,5,7.7,4.8,6.7,4.8c-1.3,0-2.4,0.3-3.4,0.8c-1,0.5-1.8,1.3-2.4,2.2C0.3,8.8,0,9.9,0,11.1c0,1.2,0.3,2.2,0.9,3.2
				c0.6,0.9,1.4,1.7,2.3,2.2c1,0.5,2.1,0.8,3.3,0.8c0.9,0,1.7-0.1,2.7-0.4c0.9-0.3,1.7-0.7,2.4-1.1v-3.3V11V10H6.1v2.4h2.8v1.7
				c-0.4,0.2-0.8,0.3-1.1,0.4c-0.4,0.1-0.7,0.2-1,0.2c-0.7,0-1.3-0.2-1.8-0.5c-0.5-0.3-1-0.8-1.3-1.3c-0.3-0.6-0.5-1.2-0.5-1.9
				c0-0.7,0.2-1.3,0.5-1.8C3.9,8.7,4.4,8.2,4.9,7.9z"/>
			<path class="st0" d="M22.8,5.7c-1-0.5-2.1-0.8-3.4-0.8c-1.2,0-2.4,0.3-3.4,0.8c-1,0.5-1.8,1.3-2.4,2.2c-0.6,0.9-0.9,2-0.9,3.2
				c0,1.2,0.3,2.2,0.9,3.2c0.6,1,1.4,1.7,2.4,2.3c1,0.5,2.1,0.8,3.4,0.8c1.2,0,2.4-0.3,3.4-0.8c1-0.5,1.8-1.3,2.4-2.3
				c0.6-1,0.9-2,0.9-3.2c0-1.2-0.3-2.2-0.9-3.2C24.6,6.9,23.8,6.2,22.8,5.7z M22.4,12.9c-0.3,0.6-0.7,1-1.2,1.3
				c-0.5,0.3-1.1,0.5-1.7,0.5c-0.6,0-1.2-0.2-1.7-0.5c-0.5-0.3-1-0.8-1.3-1.3c-0.3-0.6-0.5-1.2-0.5-1.9c0-0.7,0.2-1.3,0.5-1.8
				c0.3-0.6,0.7-1,1.3-1.3c0.5-0.3,1.1-0.5,1.7-0.5c0.6,0,1.2,0.2,1.7,0.5c0.5,0.3,0.9,0.7,1.2,1.3c0.3,0.6,0.5,1.2,0.5,1.8
				C22.8,11.7,22.7,12.4,22.4,12.9z"/>
			<polygon class="st0" points="35.8,14.6 30.6,14.6 30.6,4.9 27.5,4.9 27.5,17.2 35.8,17.2 			"/>
			<path class="st0" d="M48.8,11.1c0-1.2-0.3-2.3-0.8-3.2c-0.5-0.9-1.3-1.6-2.3-2.2c-1-0.5-2.1-0.8-3.4-0.8h-5.3v12.2h5.1
				c1.3,0,2.4-0.3,3.4-0.8c1-0.5,1.8-1.2,2.3-2.2C48.6,13.3,48.8,12.2,48.8,11.1z M45.3,13c-0.3,0.5-0.7,1-1.2,1.3
				c-0.5,0.3-1.1,0.5-1.7,0.5h-2.2V7.4h2.1c0.6,0,1.2,0.2,1.8,0.5c0.5,0.3,0.9,0.7,1.2,1.3c0.3,0.6,0.4,1.2,0.4,1.9
				C45.7,11.8,45.5,12.4,45.3,13z"/>
			<path class="st0" d="M57,14.9h5.3l0.9,2.3h3.3L61.3,4.9h-3.2l-5.3,12.2h3.2L57,14.9z M59.6,8l1.7,4.5h-3.5L59.6,8z"/>
			<polygon class="st0" points="70.6,12.7 76,12.7 76,10.2 70.6,10.2 70.6,7.4 76.5,7.4 76.5,4.9 67.4,4.9 67.4,17.2 70.6,17.2 			
				"/>
			<polygon class="st0" points="77.8,17.2 80.9,17.2 80.9,12.7 86.4,12.7 86.4,10.2 80.9,10.2 80.9,7.4 86.9,7.4 86.9,4.9 77.8,4.9 
							"/>
			<rect x="88.2" y="4.9" class="st0" width="3.1" height="12.2"/>
			<polygon class="st0" points="101.9,14.6 96.7,14.6 96.7,4.9 93.6,4.9 93.6,17.2 101.9,17.2 			"/>
			<rect x="103.2" y="4.9" class="st0" width="3.1" height="12.2"/>
			<path class="st0" d="M112.5,4.9l-5.3,12.2h3.2l0.9-2.3h5.3l0.9,2.3h3.3l-5.2-12.2H112.5z M112.2,12.6L114,8l1.7,4.5H112.2z"/>
			<polygon class="st0" points="119.4,7.4 123,7.4 123,17.2 126.2,17.2 126.2,7.4 129.8,7.4 129.8,4.9 119.4,4.9 			"/>
			<polygon class="st0" points="134.1,14.7 134.1,12.3 139.9,12.3 139.9,9.8 134.1,9.8 134.1,7.4 140.6,7.4 140.6,4.9 131,4.9 
				131,17.2 140.7,17.2 140.7,14.7 			"/>
			<polygon class="st0" points="38.7,29.1 35.4,21.8 32,21.8 32,34.1 34.8,34.1 34.8,26.1 37.7,32.8 39.7,32.8 42.7,26.1 42.7,34.1 
				45.4,34.1 45.4,21.8 42,21.8 			"/>
			<polygon class="st0" points="50.8,29.2 56.7,29.2 56.7,26.7 50.8,26.7 50.8,24.3 57.3,24.3 57.3,21.8 47.7,21.8 47.7,34.1 
				57.5,34.1 57.5,31.6 50.8,31.6 			"/>
			<polygon class="st0" points="66,29.1 62.7,21.8 59.3,21.8 59.3,34.1 62.1,34.1 62.1,26.1 65,32.8 67,32.8 70,26.1 70,34.1 
				72.7,34.1 72.7,21.8 69.3,21.8 			"/>
			<path class="st0" d="M83.2,27.6c0.7-0.2,1.2-0.5,1.5-1c0.4-0.5,0.6-1,0.6-1.7c0-0.6-0.2-1.2-0.6-1.6c-0.4-0.5-0.9-0.8-1.6-1.1
				c-0.7-0.3-1.5-0.4-2.4-0.4H75v12.2h6c1,0,1.8-0.1,2.5-0.4c0.7-0.3,1.2-0.7,1.6-1.2c0.4-0.5,0.6-1.1,0.6-1.8c0-0.8-0.2-1.5-0.7-2
				C84.6,28.1,84,27.7,83.2,27.6z M78.1,24.2h2.5c0.5,0,0.8,0.1,1.1,0.3c0.3,0.2,0.4,0.5,0.4,0.9c0,0.4-0.1,0.7-0.4,0.9
				c-0.3,0.2-0.6,0.3-1.1,0.3h-2.5V24.2z M82,31.3c-0.3,0.2-0.8,0.4-1.4,0.4h-2.5V29h2.5c0.6,0,1,0.1,1.4,0.4c0.3,0.2,0.5,0.6,0.5,1
				C82.5,30.7,82.3,31,82,31.3z"/>
			<polygon class="st0" points="90.4,29.2 96.3,29.2 96.3,26.7 90.4,26.7 90.4,24.3 96.9,24.3 96.9,21.8 87.3,21.8 87.3,34.1 
				97.1,34.1 97.1,31.6 90.4,31.6 			"/>
			<path class="st0" d="M108.9,28.5c0.4-0.7,0.6-1.5,0.6-2.4c0-1.4-0.4-2.4-1.3-3.2c-0.9-0.7-2.1-1.1-3.8-1.1h-5.5v12.2h3.1v-3.4
				h2.4h0.1l1.8,3.4h3.5l-2.6-4C108,29.7,108.5,29.1,108.9,28.5z M106,27.7c-0.4,0.3-0.9,0.5-1.6,0.5H102v-3.9h2.4
				c0.7,0,1.2,0.2,1.6,0.5c0.4,0.3,0.6,0.8,0.6,1.4C106.5,26.8,106.3,27.3,106,27.7z"/>
		</g>
	</g>
</g>
</svg>
