<?xml version="1.0" encoding="UTF-8"?>
<svg id="Layer_1" data-name="Layer 1" xmlns="http://www.w3.org/2000/svg" version="1.1" viewBox="0 0 28 28">
  <defs>
    <style>
      .cls-1 {
        fill: #fefefe;
        fill-rule: evenodd;
        stroke-width: 0px;
      }
    </style>
  </defs>
  <path class="cls-1" d="M10.3,12.9c3.4-2,7.8-.8,9.8,2.6,2,3.4.8,7.8-2.6,9.8-3.4,2-7.8.8-9.8-2.6-2-3.4-.8-7.8,2.6-9.8h0ZM7.4,11.9l3.4-2,1.3,2.3c-.6.2-1.2.4-1.8.7-.6.3-1.1.7-1.6,1.2l-1.3-2.3ZM13.2,3.2c-.2,3.4-2.1,4.5-3.3,5.3-.3.2-.5.3-.7.4-.5.4-.7.9,0,1.9l-.3.2c-1-1.3-.7-1.8,0-2.4h0c.2-.2.5-.3.7-.5,1.2-.7,2.9-1.8,3.2-5h.4ZM12.1,2h.2c0-.1.4.5.4.5h-.2c0,.1-.4-.5-.4-.5ZM12.8,1.7h.3v.8h-.3v-.8ZM13.6,1.9h.2c0,.1-.4.8-.4.8h-.2c0-.1.4-.8.4-.8ZM14.1,2.4v.2c.1,0-.5.4-.5.4v-.2c-.1,0,.5-.4.5-.4ZM14.4,3.1v.3h-.8v-.3h.8ZM14.3,3.9v.2c-.1,0-.8-.4-.8-.4v-.2c.1,0,.8.4.8.4ZM11.7,4v-.2c-.1,0,.5-.4.5-.4v.2c.1,0-.5.4-.5.4ZM11.4,3.3v-.3h.8v.3h-.8ZM11.6,2.6v-.2c.1,0,.8.4.8.4v.2c-.1,0-.8-.4-.8-.4Z"/>
</svg>