<?xml version="1.0" encoding="UTF-8"?>
<svg id="Layer_1" data-name="Layer 1" xmlns="http://www.w3.org/2000/svg" version="1.1" viewBox="0 0 28 28">
  <defs>
    <style>
      .cls-1 {
        fill: #fefefe;
        fill-rule: evenodd;
        stroke-width: 0px;
      }
    </style>
  </defs>
  <path class="cls-1" d="M14,2.8l8.7,3-1.6,14.2-7.2,5-7.2-5-1.5-14.2,8.7-3ZM14.1,2.4l8.7,3h.3c0,.1,0,.5,0,.5l-1.5,14.2v.2s-.2.1-.2.1l-7.2,5-.2.2-.3-.2-7.2-5h-.2c0-.1,0-.3,0-.3l-1.5-14.2v-.3s.3-.1.3-.1l8.7-3h.3ZM22.2,6.1l-8.2-2.8-8.2,2.8,1.5,13.7,6.8,4.8,6.8-4.8,1.5-13.7ZM14,7.8c2.7,0,4.9,2.2,4.9,4.9s-2.2,4.9-4.9,4.9-4.9-2.2-4.9-4.9,2.2-4.9,4.9-4.9h0ZM11.1,13.1l.3-.3c.1-.1.3-.1.4,0l1,1,3.5-3.5c.1-.1.3-.1.4,0l.3.3c.1.1.1.3,0,.4l-3.7,3.7-.3.3h0s0,0,0,0h0s0,0,0,0h0s0,0,0,0h0s0,0,0,0h0s0,0,0,0h-.1s0,0,0,0h0s0,0,0,0h0s0,0,0,0h0s0,0,0,0h0s-.3-.3-.3-.3l-1.2-1.2c-.1-.1-.1-.3,0-.4h0Z"/>
</svg>